<svg id="certificate" xmlns="http://www.w3.org/2000/svg" xmlns:xlink="http://www.w3.org/1999/xlink" viewBox="0 0 1851 1851"><defs><style>.cls-1{fill:none;}.cls-2{clip-path:url(#clip-path);}</style><clipPath id="clip-path" transform="translate(5.5 5.5)"><circle class="cls-1" cx="919.64" cy="919.64" r="625.5"/></clipPath></defs><title>cert-bg-logo</title><path d="M920-5.5C408.86-5.5-5.5,408.86-5.5,920S408.86,1845.5,920,1845.5s925.5-414.36,925.5-925.5S1431.14-5.5,920-5.5ZM919.5,1795C436,1795,44,1403,44,919.5S436,44,919.5,44,1795,436,1795,919.5,1403,1795,919.5,1795Z" transform="translate(5.5 5.5)"/><path d="M920,244.5c-373.07,0-675.5,302.43-675.5,675.5S546.93,1595.5,920,1595.5s675.5-302.43,675.5-675.5S1293.07,244.5,920,244.5Zm-.36,1300.64c-345.46,0-625.5-280.05-625.5-625.5s280-625.5,625.5-625.5,625.5,280,625.5,625.5S1265.09,1545.14,919.64,1545.14Z" transform="translate(5.5 5.5)"/><path d="M934,1659c-23.6-13.86-46.71-18.34-51.6-10s10.28,26.32,33.89,40.17a135.33,135.33,0,0,0,12.51,6.51,135.33,135.33,0,0,0-12.51,6.51c-23.61,13.86-38.78,31.85-33.89,40.18s28,3.85,51.6-10c20.69-12.15,34.9-27.47,34.8-36.68C968.91,1686.47,954.7,1671.15,934,1659Z" transform="translate(5.5 5.5)"/><path d="M934,1659c-23.6-13.86-46.71-18.34-51.6-10s10.28,26.32,33.89,40.17a135.33,135.33,0,0,0,12.51,6.51,135.33,135.33,0,0,0-12.51,6.51c-23.61,13.86-38.78,31.85-33.89,40.18s28,3.85,51.6-10c20.69-12.15,34.9-27.47,34.8-36.68C968.91,1686.47,954.7,1671.15,934,1659Z" transform="translate(5.5 5.5)"/><path d="M1062.12,1645.35c-25.65-9.55-49.18-9.95-52.55-.9s14.7,24.13,40.35,33.68a135.17,135.17,0,0,0,13.45,4.24,137.62,137.62,0,0,0-11.19,8.58c-20.84,17.75-32.66,38.09-26.39,45.45s28.23-1.07,49.07-18.82c18.27-15.55,29.6-33.11,27.9-42.16C1101.26,1666.34,1084.61,1653.72,1062.12,1645.35Z" transform="translate(5.5 5.5)"/><path d="M1185.92,1609.65c-26.92-5-50.16-1.26-51.91,8.24s18.66,21.22,45.58,26.16a135.36,135.36,0,0,0,14,1.84,136.46,136.46,0,0,0-9.52,10.39c-17.45,21.1-25.55,43.19-18.1,49.35s27.62-6,45.06-27.05c15.29-18.5,23.4-37.75,20.15-46.37C1228.11,1623.52,1209.52,1614,1185.92,1609.65Z" transform="translate(5.5 5.5)"/><path d="M1301.64,1553c-27.38-.2-49.62,7.47-49.69,17.13s22.06,17.66,49.43,17.86a138.73,138.73,0,0,0,14.09-.62,133.5,133.5,0,0,0-7.58,11.89c-13.51,23.8-17.66,47-9.26,51.73s26.17-10.66,39.68-34.46c11.85-20.87,16.49-41.24,11.8-49.16C1345.59,1559.33,1325.63,1553.17,1301.64,1553Z" transform="translate(5.5 5.5)"/><path d="M1405.76,1477.11c-27,4.55-47.57,16-46,25.49s24.79,13.56,51.78,9a135.45,135.45,0,0,0,13.76-3,137.31,137.31,0,0,0-5.39,13c-9.18,25.79-9.24,49.32-.14,52.56s23.92-15,33.1-40.83c8-22.61,9.08-43.48,3.08-50.47C1450.15,1475.71,1429.42,1473.11,1405.76,1477.11Z" transform="translate(5.5 5.5)"/><path d="M1495.12,1384.29c-25.79,9.18-44.07,24-40.83,33.09s26.76,9,52.55-.13a134.94,134.94,0,0,0,13-5.4,135.61,135.61,0,0,0-3.06,13.77c-4.55,27-.53,50.17,9,51.78s20.94-19,25.5-46c4-23.66,1.39-44.39-5.73-50.23C1538.59,1375.21,1517.72,1376.25,1495.12,1384.29Z" transform="translate(5.5 5.5)"/><path d="M1567,1277.37c-23.8,13.51-39.23,31.28-34.46,39.68s27.93,4.26,51.73-9.26a133.47,133.47,0,0,0,11.89-7.57,135.65,135.65,0,0,0-.61,14.08c.19,27.37,8.19,49.5,17.85,49.43s17.33-22.31,17.13-49.68c-.18-24-6.34-44-14.37-48.48C1608.24,1260.88,1587.87,1265.52,1567,1277.37Z" transform="translate(5.5 5.5)"/><path d="M1619.23,1159.59c-21.1,17.44-33.21,37.62-27,45.06s28.25-.66,49.34-18.1a134.65,134.65,0,0,0,10.39-9.53,137.41,137.41,0,0,0,1.84,14c5,26.92,16.67,47.33,26.17,45.59s13.19-25,8.24-51.91c-4.34-23.6-13.88-42.19-22.56-45.24C1657,1136.19,1637.72,1144.3,1619.23,1159.59Z" transform="translate(5.5 5.5)"/><path d="M1650.21,1034.53c-17.75,20.84-26.17,42.81-18.81,49.07s27.7-5.55,45.45-26.39a134.24,134.24,0,0,0,8.58-11.19,136.86,136.86,0,0,0,4.23,13.45c9.55,25.65,24.63,43.72,33.69,40.35s8.65-26.9-.9-52.55c-8.37-22.49-21-39.14-30.08-40.64C1683.32,1004.93,1665.77,1016.26,1650.21,1034.53Z" transform="translate(5.5 5.5)"/><path d="M1659,906c-13.86,23.6-18.34,46.71-10,51.6s26.32-10.28,40.17-33.89a135.33,135.33,0,0,0,6.51-12.51,135.33,135.33,0,0,0,6.51,12.51c13.86,23.61,31.85,38.78,40.18,33.89s3.85-28-10-51.6c-12.15-20.69-27.47-34.9-36.68-34.8C1686.47,871.09,1671.15,885.3,1659,906Z" transform="translate(5.5 5.5)"/><path d="M1645.35,777.88c-9.55,25.65-9.95,49.18-.9,52.55s24.13-14.7,33.68-40.35a135.17,135.17,0,0,0,4.24-13.45,137.62,137.62,0,0,0,8.58,11.19c17.75,20.84,38.09,32.66,45.45,26.39s-1.07-28.23-18.82-49.07c-15.55-18.27-33.11-29.6-42.16-27.9C1666.34,738.74,1653.72,755.39,1645.35,777.88Z" transform="translate(5.5 5.5)"/><path d="M1609.65,654.08c-5,26.92-1.26,50.16,8.24,51.91s21.22-18.66,26.16-45.58a135.36,135.36,0,0,0,1.84-14,136.46,136.46,0,0,0,10.39,9.52c21.1,17.45,43.19,25.55,49.35,18.1s-6-27.62-27.05-45.06c-18.5-15.29-37.75-23.4-46.37-20.15C1623.52,611.89,1614,630.48,1609.65,654.08Z" transform="translate(5.5 5.5)"/><path d="M1553,538.36c-.2,27.38,7.47,49.62,17.13,49.69S1587.78,566,1588,538.62a138.73,138.73,0,0,0-.62-14.09,133.5,133.5,0,0,0,11.89,7.58c23.8,13.51,47,17.66,51.73,9.26s-10.66-26.17-34.46-39.68c-20.87-11.85-41.24-16.49-49.16-11.8C1559.33,494.41,1553.17,514.37,1553,538.36Z" transform="translate(5.5 5.5)"/><path d="M1477.11,434.24c4.55,27,16,47.57,25.49,46s13.56-24.79,9-51.78a135.45,135.45,0,0,0-3-13.76,137.31,137.31,0,0,0,13,5.39c25.79,9.18,49.32,9.24,52.56.14s-15-23.92-40.83-33.1c-22.61-8-43.48-9.08-50.47-3.08C1475.71,389.85,1473.11,410.58,1477.11,434.24Z" transform="translate(5.5 5.5)"/><path d="M1384.29,344.88c9.18,25.79,24,44.07,33.09,40.83s9-26.76-.13-52.55a134.94,134.94,0,0,0-5.4-13,135.61,135.61,0,0,0,13.77,3.06c27,4.55,50.17.53,51.78-9s-19-20.94-46-25.5c-23.66-4-44.39-1.39-50.23,5.73C1375.21,301.41,1376.25,322.28,1384.29,344.88Z" transform="translate(5.5 5.5)"/><path d="M1277.37,273c13.51,23.8,31.28,39.23,39.68,34.46s4.26-27.93-9.26-51.73a133.47,133.47,0,0,0-7.57-11.89,135.65,135.65,0,0,0,14.08.61c27.37-.19,49.5-8.19,49.43-17.85s-22.31-17.33-49.68-17.13c-24,.18-44,6.34-48.48,14.37C1260.88,231.76,1265.52,252.13,1277.37,273Z" transform="translate(5.5 5.5)"/><path d="M1159.59,220.77c17.44,21.1,37.62,33.21,45.06,27s-.66-28.25-18.1-49.34a134.65,134.65,0,0,0-9.53-10.39,137.41,137.41,0,0,0,14-1.84c26.92-4.95,47.33-16.67,45.59-26.17s-25-13.19-51.91-8.24c-23.6,4.34-42.19,13.88-45.24,22.56C1136.19,183,1144.3,202.28,1159.59,220.77Z" transform="translate(5.5 5.5)"/><path d="M1034.53,189.79c20.84,17.75,42.81,26.17,49.07,18.81s-5.55-27.7-26.39-45.45a134.24,134.24,0,0,0-11.19-8.58,136.86,136.86,0,0,0,13.45-4.23c25.65-9.55,43.72-24.63,40.35-33.69s-26.9-8.65-52.55.9c-22.49,8.37-39.14,21-40.64,30.08C1004.93,156.68,1016.26,174.23,1034.53,189.79Z" transform="translate(5.5 5.5)"/><path d="M906,181c23.6,13.86,46.71,18.34,51.6,10s-10.28-26.32-33.89-40.17a135.33,135.33,0,0,0-12.51-6.51,135.33,135.33,0,0,0,12.51-6.51C947.31,124,962.48,106,957.59,97.63s-28-3.85-51.6,10c-20.69,12.15-34.9,27.47-34.8,36.68C871.09,153.53,885.3,168.85,906,181Z" transform="translate(5.5 5.5)"/><path d="M777.88,194.65c25.65,9.55,49.18,9.95,52.55.9s-14.7-24.13-40.35-33.68a135.17,135.17,0,0,0-13.45-4.24,137.62,137.62,0,0,0,11.19-8.58c20.84-17.75,32.66-38.09,26.39-45.45s-28.23,1.07-49.07,18.82c-18.27,15.55-29.6,33.11-27.9,42.16C738.74,173.66,755.39,186.28,777.88,194.65Z" transform="translate(5.5 5.5)"/><path d="M654.08,230.35c26.92,5,50.16,1.26,51.91-8.24S687.33,200.89,660.41,196a135.36,135.36,0,0,0-14-1.84A136.46,136.46,0,0,0,656,183.72c17.45-21.1,25.55-43.19,18.1-49.35s-27.62,6-45.06,27c-15.29,18.5-23.4,37.75-20.15,46.37C611.89,216.48,630.48,226,654.08,230.35Z" transform="translate(5.5 5.5)"/><path d="M538.36,287c27.38.2,49.62-7.47,49.69-17.13S566,252.22,538.62,252a138.73,138.73,0,0,0-14.09.62,133.5,133.5,0,0,0,7.58-11.89c13.51-23.8,17.66-47,9.26-51.73s-26.17,10.66-39.68,34.46c-11.85,20.87-16.49,41.24-11.8,49.16C494.41,280.67,514.37,286.83,538.36,287Z" transform="translate(5.5 5.5)"/><path d="M434.24,362.89c27-4.55,47.57-16,46-25.49s-24.79-13.56-51.78-9a135.45,135.45,0,0,0-13.76,3.05,137.31,137.31,0,0,0,5.39-13c9.18-25.79,9.24-49.32.14-52.56s-23.92,15-33.1,40.83c-8,22.61-9.08,43.48-3.08,50.47C389.85,364.29,410.58,366.89,434.24,362.89Z" transform="translate(5.5 5.5)"/><path d="M344.88,455.71c25.79-9.18,44.07-24,40.83-33.09s-26.76-9.05-52.55.13a134.94,134.94,0,0,0-13,5.4,135.61,135.61,0,0,0,3.06-13.77c4.55-27,.53-50.17-9-51.78s-20.94,19-25.5,46c-4,23.66-1.39,44.39,5.73,50.23C301.41,464.79,322.28,463.75,344.88,455.71Z" transform="translate(5.5 5.5)"/><path d="M273,562.63c23.8-13.51,39.23-31.28,34.46-39.68s-27.93-4.26-51.73,9.26a133.47,133.47,0,0,0-11.89,7.57,135.65,135.65,0,0,0,.61-14.08c-.19-27.37-8.19-49.5-17.85-49.43S209.27,498.58,209.47,526c.18,24,6.34,44,14.37,48.48C231.76,579.12,252.13,574.48,273,562.63Z" transform="translate(5.5 5.5)"/><path d="M220.77,680.41c21.1-17.44,33.21-37.62,27-45.06s-28.25.66-49.34,18.1A134.65,134.65,0,0,0,188.09,663a137.41,137.41,0,0,0-1.84-14c-4.95-26.92-16.67-47.33-26.17-45.59s-13.19,25-8.24,51.91c4.34,23.6,13.88,42.19,22.56,45.24C183,703.81,202.28,695.7,220.77,680.41Z" transform="translate(5.5 5.5)"/><path d="M189.79,805.47c17.75-20.84,26.17-42.81,18.81-49.07s-27.7,5.55-45.45,26.39A134.24,134.24,0,0,0,154.57,794a136.86,136.86,0,0,0-4.23-13.45c-9.55-25.65-24.63-43.72-33.69-40.35s-8.65,26.9.9,52.55c8.37,22.49,21,39.14,30.08,40.64C156.68,835.07,174.23,823.74,189.79,805.47Z" transform="translate(5.5 5.5)"/><path d="M181,934c13.86-23.6,18.34-46.71,10-51.6s-26.32,10.28-40.17,33.89a135.33,135.33,0,0,0-6.51,12.51,135.33,135.33,0,0,0-6.51-12.51C124,892.69,106,877.52,97.63,882.41s-3.85,28,10,51.6c12.15,20.69,27.47,34.9,36.68,34.8C153.53,968.91,168.85,954.7,181,934Z" transform="translate(5.5 5.5)"/><path d="M194.65,1062.12c9.55-25.65,9.95-49.18.9-52.55s-24.13,14.7-33.68,40.35a135.17,135.17,0,0,0-4.24,13.45,137.62,137.62,0,0,0-8.58-11.19c-17.75-20.84-38.09-32.66-45.45-26.39s1.07,28.23,18.82,49.07c15.55,18.27,33.11,29.6,42.16,27.9C173.66,1101.26,186.28,1084.61,194.65,1062.12Z" transform="translate(5.5 5.5)"/><path d="M230.35,1185.92c5-26.92,1.26-50.16-8.24-51.91s-21.22,18.66-26.16,45.58a135.36,135.36,0,0,0-1.84,14,136.46,136.46,0,0,0-10.39-9.52c-21.1-17.45-43.19-25.55-49.35-18.1s6,27.62,27,45.06c18.5,15.29,37.75,23.4,46.37,20.15C216.48,1228.11,226,1209.52,230.35,1185.92Z" transform="translate(5.5 5.5)"/><path d="M287,1301.64c.2-27.38-7.47-49.62-17.13-49.69S252.22,1274,252,1301.38a138.73,138.73,0,0,0,.62,14.09,133.5,133.5,0,0,0-11.89-7.58c-23.8-13.51-47-17.66-51.73-9.26s10.66,26.17,34.46,39.68c20.87,11.85,41.24,16.49,49.16,11.8C280.67,1345.59,286.83,1325.63,287,1301.64Z" transform="translate(5.5 5.5)"/><path d="M362.89,1405.76c-4.55-27-16-47.57-25.49-46s-13.56,24.79-9,51.78a135.45,135.45,0,0,0,3.05,13.76,137.31,137.31,0,0,0-13-5.39c-25.79-9.18-49.32-9.24-52.56-.14s15,23.92,40.83,33.1c22.61,8,43.48,9.08,50.47,3.08C364.29,1450.15,366.89,1429.42,362.89,1405.76Z" transform="translate(5.5 5.5)"/><path d="M455.71,1495.12c-9.18-25.79-24-44.07-33.09-40.83s-9.05,26.76.13,52.55a134.94,134.94,0,0,0,5.4,13,135.61,135.61,0,0,0-13.77-3.06c-27-4.55-50.17-.53-51.78,9s19,20.94,46,25.5c23.66,4,44.39,1.39,50.23-5.73C464.79,1538.59,463.75,1517.72,455.71,1495.12Z" transform="translate(5.5 5.5)"/><path d="M562.63,1567c-13.51-23.8-31.28-39.23-39.68-34.46s-4.26,27.93,9.26,51.73a133.47,133.47,0,0,0,7.57,11.89,135.65,135.65,0,0,0-14.08-.61c-27.37.19-49.5,8.19-49.43,17.85s22.31,17.33,49.68,17.13c24-.18,44-6.34,48.48-14.37C579.12,1608.24,574.48,1587.87,562.63,1567Z" transform="translate(5.5 5.5)"/><path d="M680.41,1619.23c-17.44-21.1-37.62-33.21-45.06-27s.66,28.25,18.1,49.34a134.65,134.65,0,0,0,9.53,10.39,137.41,137.41,0,0,0-14,1.84c-26.92,5-47.33,16.67-45.59,26.17s25,13.19,51.91,8.24c23.6-4.34,42.19-13.88,45.24-22.56C703.81,1657,695.7,1637.72,680.41,1619.23Z" transform="translate(5.5 5.5)"/><path d="M805.47,1650.21c-20.84-17.75-42.81-26.17-49.07-18.81s5.55,27.7,26.39,45.45a134.24,134.24,0,0,0,11.19,8.58,136.86,136.86,0,0,0-13.45,4.23c-25.65,9.55-43.72,24.63-40.35,33.69s26.9,8.65,52.55-.9c22.49-8.37,39.14-21,40.64-30.08C835.07,1683.32,823.74,1665.77,805.47,1650.21Z" transform="translate(5.5 5.5)"/><g class="cls-2"><path d="M1163,1589.34l-170.42-166a10,10,0,0,0-14,0l-20.38,19.85-31.66-30.85a10,10,0,0,0-14,0L881,1443.15l-20.37-19.85a10,10,0,0,0-14,0l-170.42,166a10,10,0,0,0,7,17.16h472.84A10,10,0,0,0,1163,1589.34Zm-423.56-6.24H716.17l137.47-133.93,10.59,10.32-122,118.85A9.92,9.92,0,0,0,739.48,1583.1Zm360.31,0a9.9,9.9,0,0,0-2.75-4.76l-122-118.85,10.59-10.32L1123.1,1583.1Z" transform="translate(5.5 5.5)"/><path d="M737.89,245V684.22a10,10,0,0,0,14.76,8.8l104.86-56.73a4.95,4.95,0,0,1,4.76,0L967.13,693a10,10,0,0,0,14.76-8.8V508.09l21.16-14.63a5,5,0,0,1,5.68,0l77,53.2a10,10,0,0,0,15.69-8.23V244.5Zm220.6,416.74-85.09-46a28.34,28.34,0,0,0-27,0l-85.08,46V268.4h149.1v270a10,10,0,0,0,15.68,8.23l32.42-22.4ZM1049,378.12,996.3,430.83a5,5,0,0,1-7.07,0l-7.34-7.34h0L962.8,404.4a5,5,0,0,1-.64-6.29,4.65,4.65,0,0,1,.64-.78l8.93-8.93a5,5,0,0,1,7.07,0L991,400.58a2.5,2.5,0,0,0,3.54,0L1033,362.12a5,5,0,0,1,7.07,0l8.93,8.93A5,5,0,0,1,1049,378.12Z" transform="translate(5.5 5.5)"/></g></svg>