<svg data-name="Layer 1" xmlns="http://www.w3.org/2000/svg" viewBox="0 0 415.51 91.87" fill="#000">
    <path d="M130.36,100.06a5.67,5.67,0,0,1-2.5.45q-3,0-3-3.4V80.56q0-5.2-3.18-7.93c-2.12-1.82-5-2.72-8.76-2.72a15,15,0,0,0-8,2,11.17,11.17,0,0,0-4.68,5.8l2.43,1.8q2.64-6.8,10.27-6.8a9,9,0,0,1,6.45,2.18,8,8,0,0,1,2.28,6v2.83l-9.82,1.73q-12.19,2.18-12.19,9.62a7.06,7.06,0,0,0,2.85,6,12.44,12.44,0,0,0,7.61,2.12,16.85,16.85,0,0,0,6.86-1.44,9.74,9.74,0,0,0,4.75-4c.13,2,.66,3.42,1.61,4.23a5.35,5.35,0,0,0,3.65,1.22,6.49,6.49,0,0,0,3.15-.64Zm-8.66-7.7a6.24,6.24,0,0,1-1.7,4.4,10.74,10.74,0,0,1-4.27,2.76,15.31,15.31,0,0,1-5.26.93A9.59,9.59,0,0,1,105,99.07a4.51,4.51,0,0,1-2-3.95,5.26,5.26,0,0,1,2.37-4.42c1.59-1.16,4.11-2.06,7.58-2.7l8.79-1.6Z" transform="translate(-21.15 -55.79)" />
    <path d="M140,95.44a11.39,11.39,0,0,0,4.49,5.75,13.12,13.12,0,0,0,7.44,2.08q6.81,0,10.75-4.43t4-12.25q0-7.83-4-12.26t-10.75-4.42a13.17,13.17,0,0,0-7.22,2,11.91,11.91,0,0,0-4.59,5.46V55.79h-3.2v46.84h2.88Zm.12-10q.25-5.9,3.34-9.3a10.38,10.38,0,0,1,8.09-3.4,10.83,10.83,0,0,1,8.72,3.69q3.15,3.69,3.15,10.17t-3.15,10.17a10.83,10.83,0,0,1-8.72,3.69,10.38,10.38,0,0,1-8.09-3.4q-3.07-3.4-3.34-9.31Z" transform="translate(-21.15 -55.79)" />
    <path d="M199.34,94.22a6.85,6.85,0,0,0-2.69-5.77q-2.7-2.06-9.24-3.14-5.52-1-7.7-2.44a4.7,4.7,0,0,1-2.19-4.11,4.49,4.49,0,0,1,1.19-3A8.3,8.3,0,0,1,182,73.56a12.56,12.56,0,0,1,4.66-.83q7.76,0,9.56,6.61L199,77.73a9.94,9.94,0,0,0-4.21-5.9,15.07,15.07,0,0,0-8.11-1.92,16.08,16.08,0,0,0-6.42,1.21,10.31,10.31,0,0,0-4.36,3.34,7.66,7.66,0,0,0-1.54,4.62,6.83,6.83,0,0,0,2.75,5.84q2.76,2.06,9.5,3.27c3.55.64,6,1.44,7.45,2.38a4.34,4.34,0,0,1,2.11,3.78,5.11,5.11,0,0,1-2.47,4.43,12.08,12.08,0,0,1-6.83,1.67,15,15,0,0,1-7.25-1.61A7.81,7.81,0,0,1,175.66,94L173,95.76a10.23,10.23,0,0,0,4.94,5.59,17.74,17.74,0,0,0,8.47,1.92q5.91,0,9.4-2.47A7.65,7.65,0,0,0,199.34,94.22Z" transform="translate(-21.15 -55.79)" />
    <path d="M210.51,94.61c0,2.91.73,5.08,2.21,6.51a8.41,8.41,0,0,0,6.13,2.15,11.5,11.5,0,0,0,4.1-.7,8.92,8.92,0,0,0,3.15-2L224.94,98a7.63,7.63,0,0,1-5.58,2.37,5.4,5.4,0,0,1-4.2-1.57,6.58,6.58,0,0,1-1.45-4.59V73.31h12.07V70.55H213.71V61.63l-3.2.9v8h-6.42v2.76h6.42Z" transform="translate(-21.15 -55.79)" />
    <path d="M250.1,71a6.66,6.66,0,0,0-4-1.09,10.75,10.75,0,0,0-6.39,1.89,11.5,11.5,0,0,0-4,5.29l-.38-6.54h-2.7v32.08h3.21v-18a13.87,13.87,0,0,1,1.31-6.06,10.82,10.82,0,0,1,3.47-4.24,7.86,7.86,0,0,1,4.59-1.5,6.49,6.49,0,0,1,4.1,1.15Z" transform="translate(-21.15 -55.79)" />
    <path d="M277.75,102.18a7.83,7.83,0,0,0,4.4,1.09,9.61,9.61,0,0,0,4-.77l.45-4.62a9.44,9.44,0,0,1-2.38.26,2.39,2.39,0,0,1-1.82-.58,2.5,2.5,0,0,1-.55-1.8V81.26q0-5.58-3.66-8.47t-9.88-2.88a16.11,16.11,0,0,0-8.76,2.24,10.69,10.69,0,0,0-4.72,6.1l5.33,2.82q1.92-5.77,8.28-5.78A6.55,6.55,0,0,1,273.23,77,6.19,6.19,0,0,1,275,81.65v1.73l-8.15,1.41q-6.22,1.09-9.36,3.69a8,8,0,0,0-3.15,6.39,7.32,7.32,0,0,0,2.89,6.22,12.19,12.19,0,0,0,7.57,2.18,16,16,0,0,0,6.48-1.25,9.6,9.6,0,0,0,4.37-3.5A5.38,5.38,0,0,0,277.75,102.18ZM275,92a5,5,0,0,1-2.63,4.43,11.12,11.12,0,0,1-6.09,1.66,5.8,5.8,0,0,1-3.56-.93,3.16,3.16,0,0,1-1.26-2.72A3.61,3.61,0,0,1,263,91.34a12.75,12.75,0,0,1,4.94-1.8l7-1.41Z" transform="translate(-21.15 -55.79)" />
    <path d="M315.07,91.59a7.79,7.79,0,0,1-2.63,4.62,9.26,9.26,0,0,1-11.94-1.28q-2.37-2.88-2.37-8.28t2.37-8.34a8.08,8.08,0,0,1,6.68-3q5.83,0,7.5,6.1l6.42-2.57q-3.41-9-13.92-9-7.51,0-11.75,4.42T291.2,86.59q0,7.83,4.26,12.25t11.84,4.43a15.3,15.3,0,0,0,9.05-2.53,13.1,13.1,0,0,0,5-7Z" transform="translate(-21.15 -55.79)" />
    <path d="M343.37,97.56a5,5,0,0,1-3.44-1.12A4.39,4.39,0,0,1,338.68,93V75.94h11.23V70.55H338.68V61.11L331.82,63v7.51h-6.1v5.39h6.1V94.16q.06,4.68,2.72,6.9a10.78,10.78,0,0,0,7.09,2.21,14.78,14.78,0,0,0,4.78-.74,11.35,11.35,0,0,0,3.76-2l-1.61-5A7.44,7.44,0,0,1,343.37,97.56Z" transform="translate(-21.15 -55.79)" />
    <path d="M49.85,77.52,23.38,62a1.47,1.47,0,1,0-1.47,2.54l25.4,14.71L21.91,94a1.4,1.4,0,0,0-.54,2,1.51,1.51,0,0,0,2,.53L49.85,81.26A2.14,2.14,0,0,0,49.85,77.52Z" transform="translate(-21.15 -55.79)" />
    <path d="M83.94,105.73H54.12a1.47,1.47,0,1,0,0,2.94H83.94a1.47,1.47,0,0,0,0-2.94Z" transform="translate(-21.15 -55.79)" />
    <rect x="78.5" y="68.74" width="1.77" height="17.66" />
    <polygon points="83.08 70.41 89.36 70.41 89.36 86.4 91.13 86.4 91.13 70.41 97.4 70.41 97.4 68.74 83.08 68.74 83.08 70.41" />
    <polygon points="109.44 78.28 117.69 78.28 117.69 76.58 109.44 76.58 109.44 70.41 119.88 70.41 119.88 68.74 107.67 68.74 107.67 86.4 120.3 86.4 120.3 84.73 109.44 84.73 109.44 78.28" />
    <polygon points="133.77 72.91 131.61 72.91 127.77 78.07 123.8 72.91 121.54 72.91 126.62 79.5 121.28 86.4 123.43 86.4 127.64 80.85 131.86 86.31 131.93 86.4 134.16 86.4 128.8 79.42 133.77 72.91" />
    <path d="M163.82,128.44a5.63,5.63,0,0,0-3.16.88,4.77,4.77,0,0,0-1.47,1.56l-.06-2.18h-1.64v19h1.77v-7.53a5.08,5.08,0,0,0,1.51,1.48,5.54,5.54,0,0,0,3,.84,5.79,5.79,0,0,0,4.54-1.88,8.76,8.76,0,0,0,0-10.26A5.82,5.82,0,0,0,163.82,128.44Zm4.43,7a6,6,0,0,1-1.22,4,4.19,4.19,0,0,1-3.36,1.41,3.94,3.94,0,0,1-3.11-1.3,5.62,5.62,0,0,1-1.3-3.62V135a5.62,5.62,0,0,1,1.3-3.63,4,4,0,0,1,3.11-1.31,4.19,4.19,0,0,1,3.36,1.42A6,6,0,0,1,168.25,135.44Z" transform="translate(-21.15 -55.79)" />
    <path d="M178.75,128.44a5.78,5.78,0,0,0-4.59,1.88,8.74,8.74,0,0,0,.05,10.26,6.06,6.06,0,0,0,4.69,1.87,6.72,6.72,0,0,0,3.37-.8,5.38,5.38,0,0,0,2.18-2.3l.11-.2-1.53-.8-.1.23a3.41,3.41,0,0,1-1.5,1.66,5.14,5.14,0,0,1-2.53.59,4.37,4.37,0,0,1-3.28-1.26,5.36,5.36,0,0,1-1.34-3.35h10.3l0-.2a6.54,6.54,0,0,0,.06-.89,7.24,7.24,0,0,0-1.57-4.84A5.42,5.42,0,0,0,178.75,128.44Zm4.2,6.14h-8.66a5.47,5.47,0,0,1,1.29-3.29,4.15,4.15,0,0,1,3.17-1.24,3.72,3.72,0,0,1,3,1.25A5.49,5.49,0,0,1,183,134.58Z" transform="translate(-21.15 -55.79)" />
    <path d="M193.62,128.44a4.59,4.59,0,0,0-2.73.81,4.66,4.66,0,0,0-1.31,1.44l-.12-2h-1.55v13.49h1.77v-7.53a5.41,5.41,0,0,1,.52-2.36,4.15,4.15,0,0,1,1.32-1.63,3.06,3.06,0,0,1,1.73-.57,2.51,2.51,0,0,1,1.53.42l.27.22.48-1.72-.13-.09A2.91,2.91,0,0,0,193.62,128.44Z" transform="translate(-21.15 -55.79)" />
    <rect x="176.61" y="72.91" width="1.77" height="13.49" />
    <path d="M198.64,124a1.25,1.25,0,0,0-1.32,1.33,1.25,1.25,0,0,0,1.32,1.33,1.27,1.27,0,0,0,1-.37,1.28,1.28,0,0,0,.37-1,1.27,1.27,0,0,0-1.33-1.33Z" transform="translate(-21.15 -55.79)" />
    <path d="M209.11,128.44a5.8,5.8,0,0,0-4.59,1.88,7.54,7.54,0,0,0-1.63,5.12,7.42,7.42,0,0,0,1.69,5.14,6,6,0,0,0,4.69,1.87,6.75,6.75,0,0,0,3.37-.8,5.39,5.39,0,0,0,2.18-2.3l.1-.2-1.52-.8-.1.23a3.45,3.45,0,0,1-1.5,1.66,5.14,5.14,0,0,1-2.53.59,4.35,4.35,0,0,1-3.28-1.26,5.36,5.36,0,0,1-1.34-3.35H215l0-.2a6.55,6.55,0,0,0,.05-.89,7.24,7.24,0,0,0-1.56-4.84A5.43,5.43,0,0,0,209.11,128.44Zm4.21,6.14h-8.67a5.48,5.48,0,0,1,1.3-3.29,4.14,4.14,0,0,1,3.16-1.24,3.73,3.73,0,0,1,3,1.25A5.63,5.63,0,0,1,213.32,134.58Z" transform="translate(-21.15 -55.79)" />
    <path d="M224.61,128.44a6.08,6.08,0,0,0-3.07.77,4.65,4.65,0,0,0-1.58,1.47l0-2h-1.64v13.49h1.77v-7.58a4.76,4.76,0,0,1,.61-2.43,4.07,4.07,0,0,1,1.61-1.58,4.67,4.67,0,0,1,2.21-.55,3.55,3.55,0,0,1,2.62.95,4,4,0,0,1,1,2.93v8.26h1.77v-8.67a4.88,4.88,0,0,0-1.44-3.77A5.41,5.41,0,0,0,224.61,128.44Z" transform="translate(-21.15 -55.79)" />
    <path d="M243.37,137.93a3.19,3.19,0,0,1-1.33,2.13,4.59,4.59,0,0,1-2.69.77,4.18,4.18,0,0,1-3.35-1.4,7.13,7.13,0,0,1,0-8,4.2,4.2,0,0,1,3.37-1.42,4.11,4.11,0,0,1,2.46.71,3.9,3.9,0,0,1,1.4,2.07l.08.26,1.66-.78-.07-.2a5.41,5.41,0,0,0-2.06-2.71,6.76,6.76,0,0,0-8.14.91,8.65,8.65,0,0,0,0,10.26,6,6,0,0,0,4.68,1.88,6,6,0,0,0,3.58-1.07,5.34,5.34,0,0,0,2.06-2.93l.06-.21-1.67-.58Z" transform="translate(-21.15 -55.79)" />
    <path d="M253.44,128.44a5.8,5.8,0,0,0-4.59,1.88,7.54,7.54,0,0,0-1.63,5.12,7.42,7.42,0,0,0,1.68,5.14,6.06,6.06,0,0,0,4.7,1.87,6.77,6.77,0,0,0,3.37-.8,5.44,5.44,0,0,0,2.18-2.3l.1-.2-1.52-.8-.1.23a3.43,3.43,0,0,1-1.51,1.66,5.08,5.08,0,0,1-2.52.59,4.34,4.34,0,0,1-3.28-1.26,5.25,5.25,0,0,1-1.34-3.35h10.29l0-.2a8.69,8.69,0,0,0,.05-.89,7.24,7.24,0,0,0-1.56-4.84A5.45,5.45,0,0,0,253.44,128.44Zm4.2,6.14H249a5.48,5.48,0,0,1,1.3-3.29,4.13,4.13,0,0,1,3.16-1.24,3.73,3.73,0,0,1,3,1.25A5.55,5.55,0,0,1,257.64,134.58Z" transform="translate(-21.15 -55.79)" />
    <path d="M263.26,139.58a1.37,1.37,0,1,0,1,.4A1.38,1.38,0,0,0,263.26,139.58Z" transform="translate(-21.15 -55.79)" />
    <polygon points="257.37 78.28 265.63 78.28 265.63 76.58 257.37 76.58 257.37 70.41 267.81 70.41 267.81 68.74 255.6 68.74 255.6 86.4 268.23 86.4 268.23 84.73 257.37 84.73 257.37 78.28" />
    <polygon points="281.7 72.91 279.55 72.91 275.7 78.07 271.73 72.91 269.47 72.91 274.55 79.5 269.21 86.4 271.37 86.4 275.58 80.85 279.86 86.4 282.09 86.4 276.73 79.42 281.7 72.91" />
    <path d="M311.75,128.44a5.63,5.63,0,0,0-3.16.88,4.77,4.77,0,0,0-1.47,1.56l-.06-2.18h-1.63v19h1.77v-7.53a5,5,0,0,0,1.5,1.48,5.57,5.57,0,0,0,3.05.84,5.78,5.78,0,0,0,4.54-1.88,8.76,8.76,0,0,0,0-10.26A5.8,5.8,0,0,0,311.75,128.44Zm4.43,7a6,6,0,0,1-1.22,4,4.19,4.19,0,0,1-3.36,1.41,3.94,3.94,0,0,1-3.11-1.3,5.56,5.56,0,0,1-1.29-3.62V135a5.57,5.57,0,0,1,1.29-3.63,4,4,0,0,1,3.11-1.31,4.19,4.19,0,0,1,3.36,1.42A6,6,0,0,1,316.18,135.44Z" transform="translate(-21.15 -55.79)" />
    <path d="M326.68,128.44a5.78,5.78,0,0,0-4.59,1.88,8.74,8.74,0,0,0,.05,10.26,6.06,6.06,0,0,0,4.69,1.87,6.79,6.79,0,0,0,3.38-.8,5.42,5.42,0,0,0,2.17-2.3l.11-.2-1.53-.8-.09.23a3.47,3.47,0,0,1-1.51,1.66,5.14,5.14,0,0,1-2.53.59,4.37,4.37,0,0,1-3.28-1.26,5.36,5.36,0,0,1-1.34-3.35h10.3l0-.2a8.69,8.69,0,0,0,0-.89,7.24,7.24,0,0,0-1.57-4.84A5.42,5.42,0,0,0,326.68,128.44Zm4.2,6.14h-8.66a5.42,5.42,0,0,1,1.3-3.29,4.11,4.11,0,0,1,3.16-1.24,3.74,3.74,0,0,1,3,1.25A5.55,5.55,0,0,1,330.88,134.58Z" transform="translate(-21.15 -55.79)" />
    <path d="M341.55,128.44a4.61,4.61,0,0,0-2.73.81,4.66,4.66,0,0,0-1.31,1.44l-.12-2h-1.54v13.49h1.77v-7.53a5.37,5.37,0,0,1,.51-2.36,4.09,4.09,0,0,1,1.33-1.63,3,3,0,0,1,1.72-.57,2.51,2.51,0,0,1,1.53.42l.27.22.48-1.72-.13-.09A2.91,2.91,0,0,0,341.55,128.44Z" transform="translate(-21.15 -55.79)" />
    <rect x="324.54" y="72.91" width="1.77" height="13.49" />
    <path d="M346.58,124a1.27,1.27,0,0,0-1.33,1.33,1.27,1.27,0,0,0,1.33,1.33,1.3,1.3,0,0,0,1-.37,1.31,1.31,0,0,0,.36-1,1.25,1.25,0,0,0-1.32-1.33Z" transform="translate(-21.15 -55.79)" />
    <path d="M357,128.44a5.78,5.78,0,0,0-4.58,1.88,8.74,8.74,0,0,0,.05,10.26,6,6,0,0,0,4.69,1.87,6.75,6.75,0,0,0,3.37-.8,5.44,5.44,0,0,0,2.18-2.3l.1-.2-1.52-.8-.1.23a3.45,3.45,0,0,1-1.5,1.66,5.14,5.14,0,0,1-2.53.59,4.35,4.35,0,0,1-3.28-1.26,5.36,5.36,0,0,1-1.34-3.35h10.3l0-.2a6.54,6.54,0,0,0,.06-.89,7.24,7.24,0,0,0-1.57-4.84A5.43,5.43,0,0,0,357,128.44Zm4.21,6.14h-8.67a5.48,5.48,0,0,1,1.3-3.29,4.14,4.14,0,0,1,3.16-1.24,3.73,3.73,0,0,1,3,1.25A5.56,5.56,0,0,1,361.25,134.58Z" transform="translate(-21.15 -55.79)" />
    <path d="M372.54,128.44a6.08,6.08,0,0,0-3.07.77,4.84,4.84,0,0,0-1.58,1.47l0-2h-1.64v13.49H368v-7.58a4.76,4.76,0,0,1,.61-2.43,4.07,4.07,0,0,1,1.61-1.58,4.67,4.67,0,0,1,2.21-.55A3.5,3.5,0,0,1,375,131a4,4,0,0,1,1,2.93v8.26h1.77v-8.67a4.88,4.88,0,0,0-1.44-3.77A5.41,5.41,0,0,0,372.54,128.44Z" transform="translate(-21.15 -55.79)" />
    <path d="M391.3,137.93a3.19,3.19,0,0,1-1.33,2.13,4.57,4.57,0,0,1-2.69.77,4.18,4.18,0,0,1-3.35-1.4,6,6,0,0,1-1.21-4,5.9,5.9,0,0,1,1.23-4,4.67,4.67,0,0,1,5.83-.71,3.94,3.94,0,0,1,1.39,2.07l.08.26,1.66-.78-.07-.2a5.39,5.39,0,0,0-2-2.71,6.77,6.77,0,0,0-8.15.91,8.65,8.65,0,0,0,0,10.26,6.66,6.66,0,0,0,8.26.81,5.34,5.34,0,0,0,2.06-2.93l.06-.21-1.67-.58Z" transform="translate(-21.15 -55.79)" />
    <path d="M401.37,128.44a5.8,5.8,0,0,0-4.59,1.88,7.54,7.54,0,0,0-1.63,5.12,7.42,7.42,0,0,0,1.69,5.14,6,6,0,0,0,4.69,1.87,6.77,6.77,0,0,0,3.37-.8,5.44,5.44,0,0,0,2.18-2.3l.1-.2-1.52-.8-.1.23a3.45,3.45,0,0,1-1.5,1.66,5.14,5.14,0,0,1-2.53.59,4.35,4.35,0,0,1-3.28-1.26,5.36,5.36,0,0,1-1.34-3.35h10.3l0-.2a6.55,6.55,0,0,0,0-.89,7.24,7.24,0,0,0-1.56-4.84A5.43,5.43,0,0,0,401.37,128.44Zm4.21,6.14h-8.67a5.48,5.48,0,0,1,1.3-3.29,4.14,4.14,0,0,1,3.16-1.24,3.73,3.73,0,0,1,3,1.25A5.63,5.63,0,0,1,405.58,134.58Z" transform="translate(-21.15 -55.79)" />
    <path d="M419.58,124a1.27,1.27,0,0,0-1.33,1.33,1.27,1.27,0,0,0,1.33,1.33,1.3,1.3,0,0,0,1-.37,1.32,1.32,0,0,0,.37-1,1.27,1.27,0,0,0-1.33-1.33Z" transform="translate(-21.15 -55.79)" />
    <rect x="397.54" y="72.91" width="1.77" height="13.49" />
    <path d="M431.44,139.89a2.85,2.85,0,0,1-2.1.89,2,2,0,0,1-1.53-.56,2.44,2.44,0,0,1-.52-1.7v-8.23h4.89V128.7h-4.89V125l-1.78.5v3.2h-2.6v1.59h2.6v8.41a3.77,3.77,0,0,0,1,2.81,3.7,3.7,0,0,0,2.65.94,4.87,4.87,0,0,0,1.75-.3,3.64,3.64,0,0,0,1.36-.86l.12-.12-.67-1.52Z" transform="translate(-21.15 -55.79)" />
    <path d="M436.27,140a1.4,1.4,0,0,0-1-.4,1.42,1.42,0,0,0-1,.4,1.5,1.5,0,0,0,0,2,1.4,1.4,0,0,0,1,.4,1.44,1.44,0,0,0,1-2.42Z" transform="translate(-21.15 -55.79)" />
</svg>
